<svg xmlns="http://www.w3.org/2000/svg" width="257.6" height="165.6" viewBox="0 0 257.583 165.614"><path stroke="#000" d="M94.7 29.7l2-10.8s2.7-.7 4.4 3.2c1.7 4 1.5 5.7 1.5 5.7l-2.4 2.6 7.8-7.8s2.6 1 1.8 5.3-2 5.8-2 5.8"/><path d="M174.5 50.7h.4c7-3 14.6-4.6 22.6-4.6 32.8 0 59.5 26.7 59.5 59.6 0 20.7-10.5 39-26.6 49.6-6.5 4.6-9.4 7.8-11.5 10h-57.6v-12.4L146 165H96.4c3-5.6 4.6-12 4.6-19 0-22.5-18.4-40.7-41-40.7-4.3 0-8.5.6-12.4 2-2.3.5-4.8.8-7.3.8C24 108 11 95 11 79c0-16.2 13-29.2 29.3-29.2h2.4c9.2 0 17.6-3.8 23.6-10 6-6 15-10.4 24-10.4 10 0 18.8 4.3 24.8 11v.2c10.2 9 23.4 14.4 38 14.4 7.6 0 14.8-1.5 21.5-4.3z"/><g fill="none" stroke="#000"><path d="M47.6 107.2c-2.3.6-4.8 1-7.3 1C24 108 11 95 11 78.8c0-16.2 13-29.2 29.3-29.2M115 40.5c-6-6.8-14.7-11-24.6-11-9 0-18 4.4-24 10.3"/><path d="M40.3 49.7h2.4c9.2 0 17.6-3.7 23.6-10M96.2 165c3-5.6 4.7-12 4.7-19 0-22.5-18.4-40.7-41-40.7-4.3 0-8.5.6-12.4 2H47M219.3 165h-58V153L146 165H96.4"/><path d="M231.7 154.4c-.4.3-1 .6-1.3 1-6.5 4.4-9.4 7.6-11.5 9.7l-.2.2M174.5 50.7l-1 .5M230.4 155.2c16-10.6 26.7-29 26.7-49.6 0-33-26.6-59.5-59.4-59.5-8 0-15.7 1.7-22.7 4.6M115 40.4v.2c10.2 9 23.4 14.4 38 14.4 7.6 0 14.8-1.5 21.5-4.3h.4c.2-.3.5-.4.8-.5"/></g><path fill="none" stroke="#000" stroke-width="1.5" d="M97.5 131.2c-8.6 4-18.3 6.2-28.4 6.2C31.4 137.4 1 106.8 1 69 .8 31.4 31.3 1 69 1c31.8 0 58.5 21.6 66.2 51"/><path fill="none" stroke="#FFFEFE" stroke-width="1.5" d="M135.2 51.7c1.4 5.6 2.2 11.4 2.2 17.4 0 27.7-16.3 51.4-40 62.2"/><path fill="none" stroke="#000" stroke-width="1.5" d="M122.2 26.3L138.4 10"/><circle cx="141.4" cy="7.2" r="4.1"/><circle fill="#FFF" cx="77.4" cy="53.4" r="3.1"/></svg>